<?xml version="1.0" encoding="utf-8"?>
<!-- Generator: Adobe Illustrator 25.1.0, SVG Export Plug-In . SVG Version: 6.00 Build 0)  -->
<svg version="1.1" id="Layer_1" xmlns="http://www.w3.org/2000/svg" xmlns:xlink="http://www.w3.org/1999/xlink" x="0px" y="0px"
	 viewBox="0 0 294 415" style="enable-background:new 0 0 294 415;" xml:space="preserve">
<style type="text/css">
	.st0{fill:none;}
	.st1{fill:none;stroke:#888888;stroke-miterlimit:10;}
	.st2{font-family:'Helvetica';}
	.st3{font-size:10px;}
	.st4{font-family:'Helvetica-Bold';}
	.st5{font-size:11px;}
	.st6{display:none;}
	.st7{fill:none;stroke:#DDDDDD;stroke-miterlimit:10;}
	.st8{display:none;fill:none;stroke:#DDDDDD;stroke-miterlimit:10;}
	.st9{fill:#4C78A8;}
	.st10{fill:#F58518;}
	.st11{display:none;fill:#F58518;}
	.st12{enable-background:new    ;}
</style>
<path class="st0" d="M59,57L59,57L59,57L59,57z"/>
<g transform="translate(-1,0)">
	<path class="st0" d="M59,57L59,57v300l0,0V57z"/>
	<g>
		<g>
			<g transform="translate(0.5,0.5)">
				<path pointer-events="none" class="st0" d="M59,57L59,57L59,57L59,57z"/>
				<g>
					<g pointer-events="none">
						<line class="st1" x1="59" y1="357" x2="54" y2="357"/>
						<line class="st1" x1="59" y1="314" x2="54" y2="314"/>
						<line class="st1" x1="59" y1="271" x2="54" y2="271"/>
						<line class="st1" x1="59" y1="228" x2="54" y2="228"/>
						<line class="st1" x1="59" y1="186" x2="54" y2="186"/>
						<line class="st1" x1="59" y1="143" x2="54" y2="143"/>
						<line class="st1" x1="59" y1="100" x2="54" y2="100"/>
						<line class="st1" x1="59" y1="57" x2="54" y2="57"/>
					</g>
					<g pointer-events="none">
						<text transform="matrix(1 0 0 1 46.4385 360)" class="st2 st3">0</text>
						<text transform="matrix(1 0 0 1 21.4141 317.1428)" class="st2 st3">10,000</text>
						<text transform="matrix(1 0 0 1 21.4141 274.2857)" class="st2 st3">20,000</text>
						<text transform="matrix(1 0 0 1 21.4141 231.4286)" class="st2 st3">30,000</text>
						<text transform="matrix(1 0 0 1 21.4141 188.5714)" class="st2 st3">40,000</text>
						<text transform="matrix(1 0 0 1 21.4141 145.7143)" class="st2 st3">50,000</text>
						<text transform="matrix(1 0 0 1 21.4141 102.8571)" class="st2 st3">60,000</text>
						<text transform="matrix(1 0 0 1 21.4141 60)" class="st2 st3">70,000</text>
					</g>
					<g pointer-events="none">
						<line class="st1" x1="59" y1="357" x2="59" y2="57"/>
					</g>
					<g pointer-events="none">
						<text transform="matrix(6.123234e-17 -1 1 6.123234e-17 15.4141 286.3398)" class="st4 st5">Median Household Income</text>
					</g>
				</g>
				<path pointer-events="none" class="st6" d="M59,57"/>
			</g>
		</g>
	</g>
	<path class="st6" d="M59,57"/>
</g>
<g transform="translate(0,-1)">
	<path class="st0" d="M59,57h40l0,0H59z"/>
	<g>
		<g>
			<g transform="translate(20,-20)">
				<path pointer-events="none" class="st0" d="M59,57L59,57L59,57L59,57z"/>
				<g>
					<g pointer-events="none">
						<text transform="matrix(1 0 0 1 42.0469 65)" class="st2 st3">Arizona</text>
					</g>
				</g>
				<path pointer-events="none" class="st6" d="M59,57"/>
			</g>
		</g>
	</g>
	<path class="st6" d="M59,57"/>
</g>
<g transform="translate(62,-1)">
	<path class="st0" d="M59,57h40l0,0H59z"/>
	<g>
		<g>
			<g transform="translate(20,-20)">
				<path pointer-events="none" class="st0" d="M59,57L59,57L59,57L59,57z"/>
				<g>
					<g pointer-events="none">
						<text transform="matrix(1 0 0 1 37.8794 65)" class="st2 st3">California</text>
					</g>
				</g>
				<path pointer-events="none" class="st6" d="M59,57"/>
			</g>
		</g>
	</g>
	<path class="st6" d="M59,57"/>
</g>
<g transform="translate(124,-1)">
	<path class="st0" d="M59,57h40l0,0H59z"/>
	<g>
		<g>
			<g transform="translate(20,-20)">
				<path pointer-events="none" class="st0" d="M59,57L59,57L59,57L59,57z"/>
				<g>
					<g pointer-events="none">
						<text transform="matrix(1 0 0 1 37.5938 65)" class="st2 st3">Louisiana</text>
					</g>
				</g>
				<path pointer-events="none" class="st6" d="M59,57"/>
			</g>
		</g>
	</g>
	<path class="st6" d="M59,57"/>
</g>
<g transform="translate(0,0)">
	<path class="st7" d="M59.5,57.5h40v300h-40V57.5z"/>
	<g>
		<g>
			<g transform="translate(0.5,0.5)">
				<path pointer-events="none" class="st0" d="M59,57L59,57L59,57L59,57z"/>
				<g>
					<g pointer-events="none">
						<line class="st7" x1="59" y1="357" x2="99" y2="357"/>
						<line class="st7" x1="59" y1="314" x2="99" y2="314"/>
						<line class="st7" x1="59" y1="271" x2="99" y2="271"/>
						<line class="st7" x1="59" y1="228" x2="99" y2="228"/>
						<line class="st7" x1="59" y1="186" x2="99" y2="186"/>
						<line class="st7" x1="59" y1="143" x2="99" y2="143"/>
						<line class="st7" x1="59" y1="100" x2="99" y2="100"/>
						<line class="st7" x1="59" y1="57" x2="99" y2="57"/>
					</g>
				</g>
				<path pointer-events="none" class="st8" d="M59,57"/>
			</g>
		</g>
		<g>
			<path class="st9" d="M60,217.7h18V357H60V217.7z"/>
			<path class="st10" d="M80,147h18v210H80V147z"/>
		</g>
	</g>
	<path class="st11" d="M59,57"/>
</g>
<g transform="translate(62,0)">
	<path class="st7" d="M59.5,57.5h40v300h-40V57.5z"/>
	<g>
		<g>
			<g transform="translate(0.5,0.5)">
				<path pointer-events="none" class="st0" d="M59,57L59,57L59,57L59,57z"/>
				<g>
					<g pointer-events="none">
						<line class="st7" x1="59" y1="357" x2="99" y2="357"/>
						<line class="st7" x1="59" y1="314" x2="99" y2="314"/>
						<line class="st7" x1="59" y1="271" x2="99" y2="271"/>
						<line class="st7" x1="59" y1="228" x2="99" y2="228"/>
						<line class="st7" x1="59" y1="186" x2="99" y2="186"/>
						<line class="st7" x1="59" y1="143" x2="99" y2="143"/>
						<line class="st7" x1="59" y1="100" x2="99" y2="100"/>
						<line class="st7" x1="59" y1="57" x2="99" y2="57"/>
					</g>
				</g>
				<path pointer-events="none" class="st8" d="M59,57"/>
			</g>
		</g>
		<g>
			<path class="st9" d="M60,152.9h18V357H60V152.9z"/>
			<path class="st10" d="M80,66.8h18V357H80V66.8z"/>
		</g>
	</g>
	<path class="st11" d="M59,57"/>
</g>
<g transform="translate(124,0)">
	<path class="st7" d="M59.5,57.5h40v300h-40V57.5z"/>
	<g>
		<g>
			<g transform="translate(0.5,0.5)">
				<path pointer-events="none" class="st0" d="M59,57L59,57L59,57L59,57z"/>
				<g>
					<g pointer-events="none">
						<line class="st7" x1="59" y1="357" x2="99" y2="357"/>
						<line class="st7" x1="59" y1="314" x2="99" y2="314"/>
						<line class="st7" x1="59" y1="271" x2="99" y2="271"/>
						<line class="st7" x1="59" y1="228" x2="99" y2="228"/>
						<line class="st7" x1="59" y1="186" x2="99" y2="186"/>
						<line class="st7" x1="59" y1="143" x2="99" y2="143"/>
						<line class="st7" x1="59" y1="100" x2="99" y2="100"/>
						<line class="st7" x1="59" y1="57" x2="99" y2="57"/>
					</g>
				</g>
				<path pointer-events="none" class="st8" d="M59,57"/>
			</g>
		</g>
		<g>
			<path class="st9" d="M60,177.9h18V357H60V177.9z"/>
			<path class="st10" d="M80,164.7h18V357H80V164.7z"/>
		</g>
	</g>
	<path class="st11" d="M59,57"/>
</g>
<path pointer-events="none" class="st0" d="M233.9,318.5h46v40h-46V318.5z"/>
<g>
	<g>
		<g transform="translate(0,16)">
			<path pointer-events="none" class="st0" d="M230.8,306.5L230.8,306.5L230.8,306.5L230.8,306.5z"/>
			<g>
				<g>
					<g transform="translate(0,0)">
						<path pointer-events="none" class="st0" d="M230.8,306.5h45.5v11h-45.5V306.5z"/>
						<g>
							<g pointer-events="none">
								<path class="st9" d="M231.8,307.5h10v10h-10V307.5z"/>
							</g>
							<g pointer-events="none">
								<text transform="matrix(1 0 0 1 246.7545 315.5098)" class="st2 st3">County</text>
							</g>
						</g>
						<path pointer-events="none" class="st6" d="M230.8,306.5"/>
					</g>
					<g transform="translate(0,13)">
						<path pointer-events="none" class="st0" d="M230.8,306.5h45.5v11h-45.5V306.5z"/>
						<g>
							<g pointer-events="none">
								<path class="st10" d="M231.8,307.5h10v10h-10V307.5z"/>
							</g>
							<g pointer-events="none">
								<text transform="matrix(1 0 0 1 246.7545 315.5098)" class="st12"><tspan x="0" y="0" class="st2 st3">State </tspan><tspan x="0" y="12" class="st2 st3">Average</tspan></text>
							</g>
						</g>
						<path pointer-events="none" class="st6" d="M230.8,306.5"/>
					</g>
				</g>
			</g>
			<path pointer-events="none" class="st6" d="M230.8,306.5"/>
		</g>
	</g>
</g>
<path pointer-events="none" class="st6" d="M243,57"/>
<path class="st6" d="M59,57"/>
<g transform="translate(-1,0)">
	<g>
		<g>
			<g transform="translate(0.5,0.5)">
				<path pointer-events="none" class="st6" d="M-234.5,56.5"/>
			</g>
		</g>
	</g>
	<path class="st6" d="M-234.5,56.5"/>
</g>
<g transform="translate(0,-1)">
	<g>
		<g>
			<g transform="translate(20,-20)">
				<path pointer-events="none" class="st6" d="M-234.5,56.5"/>
			</g>
		</g>
	</g>
	<path class="st6" d="M-234.5,56.5"/>
</g>
<g transform="translate(62,-1)">
	<g>
		<g>
			<g transform="translate(20,-20)">
				<path pointer-events="none" class="st6" d="M-234.5,56.5"/>
			</g>
		</g>
	</g>
	<path class="st6" d="M-234.5,56.5"/>
</g>
<g transform="translate(124,-1)">
	<g>
		<g>
			<g transform="translate(20,-20)">
				<path pointer-events="none" class="st6" d="M-234.5,56.5"/>
			</g>
		</g>
	</g>
	<path class="st6" d="M-234.5,56.5"/>
</g>
<g transform="translate(0,0)">
	<g>
		<g>
			<g transform="translate(0.5,0.5)">
				<path pointer-events="none" class="st8" d="M-234.5,56.5"/>
			</g>
		</g>
	</g>
	<path class="st11" d="M-234.5,56.5"/>
</g>
<g transform="translate(62,0)">
	<g>
		<g>
			<g transform="translate(0.5,0.5)">
				<path pointer-events="none" class="st8" d="M-234.5,56.5"/>
			</g>
		</g>
	</g>
	<path class="st11" d="M-234.5,56.5"/>
</g>
<g transform="translate(124,0)">
	<g>
		<g>
			<g transform="translate(0.5,0.5)">
				<path pointer-events="none" class="st8" d="M-234.5,56.5"/>
			</g>
		</g>
	</g>
	<path class="st11" d="M-234.5,56.5"/>
</g>
<path class="st6" d="M-234.5,56.5"/>
</svg>
